<svg xmlns="http://www.w3.org/2000/svg" viewBox="0 0 64 64" width="64" height="64">
  <defs>
    <linearGradient id="medcare-green" x1="0%" y1="0%" x2="100%" y2="100%">
      <stop offset="0%" stop-color="#34D399" />
      <stop offset="100%" stop-color="#059669" />
    </linearGradient>
  </defs>
  <!-- Rounded Squircle Badge -->
  <rect x="2" y="2" width="60" height="60" rx="16" ry="16" fill="url(#medcare-green)" />
  <!-- Crisp Pure White Medical Cross -->
  <path d="M26 15 C26 13.34 27.34 12 29 12 L35 12 C36.66 12 38 13.34 38 15 L38 26 L49 26 C50.66 26 52 27.34 52 29 L52 35 C52 36.66 50.66 38 49 38 L38 38 L38 49 C38 50.66 36.66 52 35 52 L29 52 C27.34 52 26 50.66 26 49 L26 38 L15 38 C13.34 38 12 36.66 12 35 L12 29 C12 27.34 13.34 26 15 26 L26 26 Z" fill="#FFFFFF" />
</svg>
